<?xml version="1.0" encoding="utf-8"?>
<!-- Generator: Adobe Illustrator 25.0.0, SVG Export Plug-In . SVG Version: 6.00 Build 0)  -->
<svg version="1.1" id="_x32_048x512" xmlns="http://www.w3.org/2000/svg" xmlns:xlink="http://www.w3.org/1999/xlink" x="0px"
	 y="0px" viewBox="0 0 2048 512" style="enable-background:new 0 0 2048 512;" xml:space="preserve">
<style type="text/css">
	.st0{fill:none;}
</style>
<g>
	<rect class="st0" width="2048" height="512"/>
	<g>
		<path d="M254.62,174.55l9.49-21.08C271.09,138,286.56,128,303.53,128c11.54,0,22.39,4.5,30.54,12.66l11.2,11.22
			C325.46,162.77,312,183.84,312,208v30.11c0,53.69-38.27,99.95-91.02,110.02l-110.33,21.05c-5.52,1.06-10.09,4.94-12.02,10.22
			s-0.95,11.19,2.59,15.56c61.94,76.59,155.11,99.66,159.05,100.61c1.23,0.3,2.48,0.44,3.73,0.44s2.51-0.14,3.73-0.44
			C269.86,495.05,480,442.28,480,240V48c0-17.64-14.35-32-32-32H80c-17.65,0-32,14.36-32,32v244.16l32-32V48h368v192
			c0,164.83-156.52,215.78-183.93,223.44c-14.98-4.33-72.62-23.17-119.25-68.2l82.16-15.67C294.79,366.62,344,307.14,344,238.11V208
			c0-17.64,14.35-32,32-32h13.58c9.27,0,13.91-11.2,7.36-17.75l-40.22-40.21C342.51,103.83,323.62,96,303.53,96
			c-29.54,0-56.46,17.41-68.59,44.34l-8.3,18.43L0,385.42v45.26L251.35,179.3C252.73,177.92,253.84,176.33,254.62,174.55z"/>
		<g>
			<g>
				<g>
					<g>
						<path d="M624,351.96V128.01h143.42v32.08H660.27v62.24h97.21v32.08h-97.21v65.45h107.16v32.08H624z"/>
						<path d="M870.24,355.81c-11.98,0-22.67-2.04-32.08-6.09c-9.42-4.07-17.33-9.9-23.75-17.5c-6.41-7.58-11.33-16.78-14.76-27.59
							c-3.42-10.79-5.12-22.83-5.12-36.09c0-13.25,1.71-25.29,5.12-36.09c3.43-10.79,8.35-19.99,14.76-27.59
							c6.42-7.6,14.33-13.43,23.75-17.48c9.42-4.06,20.1-6.09,32.08-6.09c16.68,0,30.36,3.74,41.06,11.22
							c10.7,7.5,18.5,17.44,23.42,29.84l-28.87,13.47c-2.35-7.69-6.47-13.85-12.34-18.44c-5.89-4.61-13.65-6.91-23.26-6.91
							c-12.83,0-22.51,4.01-29.05,12c-6.52,8.01-9.78,18.41-9.78,31.19v29.77c0,12.8,3.26,23.2,9.78,31.19
							c6.53,8.01,16.21,12,29.05,12c10.26,0,18.45-2.51,24.55-7.54c6.09-5.03,10.95-11.72,14.59-20.05L936,313.14
							c-5.56,13.74-13.9,24.3-25.02,31.65C899.86,352.13,886.28,355.81,870.24,355.81z"/>
						<path d="M1032.91,355.81c-11.55,0-22.09-2.04-31.6-6.09c-9.53-4.07-17.59-9.9-24.22-17.5c-6.64-7.58-11.77-16.78-15.4-27.59
							c-3.65-10.79-5.45-22.83-5.45-36.09c0-13.25,1.8-25.29,5.45-36.09c3.63-10.79,8.76-19.99,15.4-27.59
							c6.63-7.6,14.69-13.43,24.22-17.48c9.51-4.06,20.05-6.09,31.6-6.09c11.56,0,22.09,2.04,31.61,6.09
							c9.51,4.06,17.59,9.89,24.22,17.48s11.77,16.79,15.4,27.59c3.63,10.81,5.45,22.84,5.45,36.09c0,13.27-1.82,25.3-5.45,36.09
							c-3.63,10.81-8.77,20.01-15.4,27.59c-6.63,7.6-14.71,13.43-24.22,17.5C1055,353.78,1044.48,355.81,1032.91,355.81z
							 M1032.91,326.61c11.98,0,21.6-3.67,28.89-11.01c7.27-7.33,10.9-18.35,10.9-33.01V254.5c0-14.68-3.63-25.68-10.9-33.02
							c-7.28-7.33-16.9-11.01-28.89-11.01c-11.97,0-21.6,3.68-28.87,11.01c-7.27,7.35-10.9,18.35-10.9,33.02v28.09
							c0,14.66,3.63,25.68,10.9,33.01C1011.31,322.95,1020.94,326.61,1032.91,326.61z"/>
						<path d="M1240.58,355.81c-14.55,0-27.76-2.52-39.62-7.55c-11.88-5.01-22.04-12.39-30.49-22.14
							c-8.46-9.73-14.98-21.81-19.57-36.25c-4.61-14.43-6.91-31.07-6.91-49.9c0-18.82,2.3-35.45,6.91-49.88
							c4.59-14.44,11.11-26.52,19.57-36.25c8.44-9.74,18.61-17.12,30.49-22.15c11.86-5.01,25.07-7.54,39.62-7.54
							c14.54,0,27.74,2.52,39.62,7.54c11.88,5.03,22.03,12.41,30.49,22.15c8.44,9.73,14.96,21.81,19.57,36.25
							c4.59,14.43,6.89,31.07,6.89,49.88c0,18.83-2.3,35.47-6.89,49.9c-4.61,14.44-11.12,26.52-19.57,36.25
							c-8.46,9.74-18.61,17.12-30.49,22.14C1268.33,353.29,1255.12,355.81,1240.58,355.81z M1240.58,323.73
							c8.55,0,16.42-1.5,23.58-4.51c7.16-3.01,13.27-7.35,18.3-13.05c5.01-5.69,8.91-12.61,11.7-20.77
							c2.77-8.16,4.17-17.39,4.17-27.7v-35.42c0-10.31-1.39-19.54-4.17-27.7c-2.79-8.16-6.69-15.09-11.7-20.77
							c-5.03-5.69-11.14-10.04-18.3-13.05c-7.16-3.01-15.02-4.51-23.58-4.51c-8.77,0-16.68,1.5-23.75,4.51
							c-7.05,3.01-13.1,7.36-18.13,13.05c-5.03,5.69-8.93,12.61-11.7,20.77c-2.79,8.16-4.18,17.39-4.18,27.7v35.42
							c0,10.31,1.39,19.54,4.18,27.7c2.77,8.16,6.67,15.09,11.7,20.77c5.03,5.7,11.08,10.04,18.13,13.05
							C1223.9,322.22,1231.81,323.73,1240.58,323.73z"/>
						<path d="M1373.54,351.96V185.11h34.98v27.6h1.6c3.63-8.99,9.15-16.48,16.53-22.47c7.38-5.98,17.48-8.98,30.31-8.98
							c17.11,0,30.42,5.61,39.95,16.84c9.51,11.23,14.27,27.21,14.27,47.97v105.87h-34.97V250.57c0-26.08-10.48-39.13-31.44-39.13
							c-4.5,0-8.93,0.6-13.32,1.75c-4.39,1.19-8.29,2.95-11.7,5.3c-3.43,2.37-6.16,5.36-8.19,8.99c-2.04,3.63-3.04,7.91-3.04,12.83
							v111.65H1373.54z"/>
						<path d="M1591.3,351.96c-11.98,0-20.91-3.05-26.79-9.15c-5.89-6.09-8.84-14.6-8.84-25.5V114.54h34.98V323.4h23.09v28.56
							H1591.3z"/>
						<path d="M1660.98,155.29c-7.27,0-12.56-1.71-15.89-5.14c-3.32-3.42-4.97-7.8-4.97-13.16v-5.45c0-5.34,1.64-9.73,4.97-13.14
							c3.32-3.43,8.62-5.14,15.89-5.14c7.27,0,12.52,1.71,15.71,5.14c3.21,3.42,4.83,7.8,4.83,13.14v5.45
							c0,5.36-1.61,9.74-4.83,13.16C1673.5,153.58,1668.25,155.29,1660.98,155.29z M1643.33,185.11h34.98v166.85h-34.98V185.11z"/>
						<path d="M1724.18,351.96V185.11h34.98v27.6h1.6c3.63-8.99,9.15-16.48,16.53-22.47c7.38-5.98,17.48-8.98,30.31-8.98
							c17.11,0,30.42,5.61,39.95,16.84c9.51,11.23,14.27,27.21,14.27,47.97v105.87h-34.97V250.57c0-26.08-10.48-39.13-31.44-39.13
							c-4.5,0-8.93,0.6-13.32,1.75c-4.39,1.19-8.29,2.95-11.7,5.3c-3.43,2.37-6.16,5.36-8.19,8.99c-2.04,3.63-3.04,7.91-3.04,12.83
							v111.65H1724.18z"/>
						<path d="M1973.88,355.81c-11.97,0-22.67-2.04-32.08-6.09c-9.42-4.07-17.44-9.9-24.06-17.5c-6.63-7.58-11.7-16.78-15.23-27.59
							c-3.54-10.79-5.3-22.83-5.3-36.09c0-13.25,1.75-25.29,5.3-36.09c3.52-10.79,8.6-19.99,15.23-27.59
							c6.63-7.6,14.65-13.43,24.06-17.48c9.42-4.06,20.12-6.09,32.08-6.09c12.2,0,22.95,2.13,32.26,6.41
							c9.31,4.29,17.04,10.21,23.25,17.81s10.86,16.42,13.96,26.46c3.1,10.06,4.65,20.87,4.65,32.41v13.16h-114.54v5.42
							c0,12.75,3.79,23.2,11.39,31.4c7.58,8.18,18.45,12.27,32.57,12.27c10.26,0,18.92-2.22,25.99-6.69
							c7.05-4.46,13.03-10.53,17.95-18.17l20.54,20.27c-6.2,10.29-15.18,18.5-26.95,24.61
							C2003.19,352.76,1989.5,355.81,1973.88,355.81z M1973.88,208.54c-5.98,0-11.5,1.08-16.51,3.21
							c-5.03,2.15-9.31,5.14-12.85,8.99c-3.52,3.84-6.25,8.44-8.18,13.79c-1.93,5.36-2.88,11.23-2.88,17.66v2.24h77.64v-3.21
							c0-12.83-3.32-23.14-9.95-30.96C1994.53,212.45,1985.44,208.54,1973.88,208.54z"/>
					</g>
				</g>
			</g>
		</g>
	</g>
</g>
</svg>
